<?xml version="1.0" encoding="utf-8"?>
<!-- Generator: Adobe Illustrator 20.1.0, SVG Export Plug-In . SVG Version: 6.00 Build 0)  -->
<svg version="1.1" id="Layer_1" xmlns="http://www.w3.org/2000/svg" xmlns:xlink="http://www.w3.org/1999/xlink" x="0px" y="0px"
	 viewBox="0 0 1026 85.1" style="enable-background:new 0 0 1026 85.1;" xml:space="preserve">
<style type="text/css">
	.st0{fill:#000022;}
	.st1{fill:none;stroke:#D7927E;stroke-width:5;stroke-linecap:round;stroke-linejoin:round;}
	.st2{fill:none;stroke:#D7927E;stroke-width:5;stroke-linecap:round;stroke-linejoin:round;stroke-dasharray:0.7435,7.9302;}
</style>
<g>
	<g>
		<g>
			<path class="st0" d="M459.5,84.1c-39,0-47.9-25.3-49.7-40.3c-0.1-0.6-0.2-1.4-0.2-2.3c-0.5-5.2-1.4-14.9-5.6-15.3l-0.7-0.1
				l-0.1-0.7c-1.2-6.2-2.5-11.7-3.8-16.9l-0.3-1.2l1.2,0l0.1,0c6.7-1.4,30.2-6.2,53.6-6.2c23.3,0,39,4.7,46.6,13.9l0.3,0.4l0,0.2
				c1.3,3.2,4.9,13.4,3.7,27.4c-1.3,14.6-8.6,39.4-42.6,41.1C461,84.1,460.2,84.1,459.5,84.1z M452.5,11.8c-7.4,0-13.5,0-18.9,0.6
				c-9.7,1-16.8,9.2-16.4,19.1c0.7,20.7,7.9,45.4,37.6,45.5c0.8,0,1.7,0.1,2.5,0.1c1.1,0,2.3,0,3.5-0.1c20.3-1,32.4-12.7,34.1-33
				c0.9-10.5-2.4-19.1-4.3-22.2c-2.9-4.8-14.1-9.9-36.8-9.9L452.5,11.8z"/>
			<path class="st0" d="M453.8,2c18.7,0,37.2,3.1,45.8,13.6c0,0.1,5.2,11,3.7,27.3c-1.3,14.9-9,38.5-41.7,40.2c-0.7,0-1.5,0-2.2,0
				c-31.1,0-46-16.8-48.7-39.4c-0.6-4.8-0.9-17.9-6.8-18.5c-1.1-5.6-2.4-11.3-3.8-17h0C400.3,8.2,427.3,2,453.8,2 M457.3,78
				c1.2,0,2.4,0,3.6-0.1c20.6-1,33.3-13.1,35-33.9c0.9-11.3-2.7-20-4.4-22.8c-2.8-4.6-13.4-10.4-37.6-10.4c-0.4,0-0.9,0-1.3,0
				c-7.2,0-13.5,0-19.1,0.6c-10.4,1-17.7,9.8-17.3,20.1c0.6,18,6.2,46.4,38.6,46.4C455.7,78,456.5,78,457.3,78 M453.8,0
				c-23.5,0-47.1,4.7-53.8,6.2l0,0h-2.4l0.6,2.5c1.3,5.2,2.6,10.8,3.8,16.9l0.3,1.4l1.5,0.2c3.4,0.4,4.3,10.2,4.7,14.4
				c0.1,0.9,0.2,1.7,0.2,2.3c1.5,12.3,6.5,22.4,14.4,29.5c8.8,7.8,21,11.7,36.3,11.7c0.7,0,1.5,0,2.3,0l0,0l0,0
				c15-0.8,26.5-6.1,34.1-15.9c6.7-8.6,8.8-19,9.5-26.1c1.3-14-2.2-24.2-3.6-27.6l0.1-0.3l-0.6-0.7C493.4,4.8,477.5,0,453.8,0
				L453.8,0z M457.3,76c-0.8,0-1.6,0-2.4,0l0,0l0,0c-13.5,0-23.5-5.2-29.5-15.5c-4.3-7.3-6.7-17-7.1-29c-0.4-9.4,6.3-17.1,15.5-18
				c5.4-0.5,11.5-0.6,18.9-0.6l1.3,0c10.8,0,19.6,1.1,26.2,3.4c6.8,2.3,9,5,9.7,6.1c1.8,3,5,11.4,4.1,21.6
				c-1.6,19.7-13.4,31.1-33.1,32C459.6,76,458.5,76,457.3,76L457.3,76z"/>
		</g>
		<g>
			<path class="st0" d="M566.5,84.1c-0.7,0-1.5,0-2.2,0c-34-1.8-41.3-26.5-42.6-41.1c-1.3-14.2,2.4-24.4,3.7-27.5l0-0.2l0.3-0.4
				C533.2,5.7,548.8,1,572.2,1c23.4,0,46.9,4.7,53.6,6.2l0.1,0l1.2,0l-0.3,1.3c-1.3,5.2-2.6,10.8-3.8,16.9l-0.1,0.7l-0.7,0.1
				c-4.2,0.4-5.2,10.1-5.6,15.3c-0.1,0.9-0.2,1.7-0.2,2.3C614.4,58.8,605.4,84.1,566.5,84.1C566.5,84.1,566.5,84.1,566.5,84.1z
				 M572.1,11.8c-22.7,0-33.8,5.1-36.8,9.9c-1.8,3.1-5.1,11.7-4.3,22.2c1.6,20.3,13.7,32,34.1,33c1.2,0.1,2.4,0.1,3.5,0.1
				c0.8,0,1.7,0,2.5,0c29.8-0.1,36.9-24.8,37.7-45.5c0.4-9.9-6.6-18.1-16.4-19.1c-5.5-0.5-11.6-0.6-19.1-0.6H572.1z"/>
			<path class="st0" d="M572.2,2c26.5,0,53.5,6.2,53.6,6.2h0c-1.4,5.7-2.7,11.4-3.8,17c-5.8,0.6-6.2,13.7-6.8,18.5
				c-2.8,22.6-17.6,39.4-48.7,39.4c-0.7,0-1.5,0-2.2,0c-32.7-1.7-40.3-25.4-41.7-40.2c-1.5-16.2,3.7-27.2,3.7-27.3
				C535,5.1,553.4,2,572.2,2 M568.6,78c0.8,0,1.7,0,2.5,0c32.4-0.1,38-28.5,38.6-46.4c0.4-10.3-6.9-19.1-17.3-20.1
				c-5.6-0.6-11.9-0.6-19.2-0.6c-0.4,0-0.8,0-1.2,0c-24.2,0-34.8,5.8-37.6,10.4c-1.7,2.8-5.3,11.5-4.4,22.8
				c1.7,20.7,14.4,32.9,35,33.9C566.3,78,567.5,78,568.6,78 M572.2,0c-23.6,0-39.6,4.8-47.4,14.3l-0.6,0.7l0.1,0.3
				c-1.4,3.4-4.9,13.7-3.6,27.7c0.6,7.1,2.8,17.5,9.5,26.1c7.6,9.8,19,15.2,34.1,15.9l0,0l0,0c0.8,0,1.5,0,2.3,0
				c15.3,0,27.5-3.9,36.3-11.7c7.9-7,12.9-17.2,14.4-29.5c0.1-0.6,0.2-1.4,0.2-2.3c0.4-4.2,1.3-14.1,4.7-14.4l1.5-0.2l0.3-1.4
				c1.2-6.1,2.5-11.7,3.8-16.9l0.6-2.5H626l0,0C619.3,4.7,595.7,0,572.2,0L572.2,0z M568.6,76c-1.1,0-2.3,0-3.5-0.1
				c-19.8-1-31.5-12.3-33.1-32c-0.9-10.2,2.3-18.6,4.1-21.6c0.6-1.1,2.9-3.8,9.7-6.1c6.6-2.2,15.5-3.4,26.2-3.4l1.2,0
				c7.4,0,13.6,0,19,0.6c9.2,0.9,15.9,8.7,15.5,18c-0.4,12-2.8,21.7-7.1,29c-6.1,10.3-16,15.5-29.5,15.5l0,0l0,0
				C570.3,76,569.4,76,568.6,76L568.6,76z"/>
		</g>
	</g>
	<g>
		<path class="st0" d="M526.6,34c-2.1-1.3-7-3.7-14.1-3.7c-6.6,0-11.1,2.3-13.1,3.6c-1.1-3.1-2.2-6.1-3.3-9.2h33.9
			C528.8,27.8,527.7,30.9,526.6,34z"/>
		<path class="st0" d="M528.5,25.7c-0.8,2.3-1.6,4.5-2.5,6.8c-2.7-1.4-7.4-3.2-13.6-3.2c-5.8,0-10.1,1.8-12.5,3.1
			c-0.8-2.2-1.6-4.5-2.4-6.7c5.2,0,10.3,0,15.5,0C518.2,25.7,523.3,25.7,528.5,25.7 M531.3,23.7c-6.1,0-12.2,0-18.4,0
			c-6.1,0-12.2,0-18.4,0c1.4,3.9,2.9,7.8,4.3,11.8c0,0,4.8-4.2,13.5-4.2c0,0,0,0,0,0c0,0,0,0,0,0c9.3,0,14.6,4.2,14.6,4.2
			C528.5,31.6,529.9,27.7,531.3,23.7L531.3,23.7z"/>
	</g>
</g>
<g>
	<g>
		<line class="st1" x1="2.5" y1="40" x2="2.9" y2="40"/>
		<line class="st2" x1="10.8" y1="40" x2="371.1" y2="40"/>
		<line class="st1" x1="375.1" y1="40" x2="375.5" y2="40"/>
	</g>
</g>
<g>
	<g>
		<line class="st1" x1="650.5" y1="40" x2="650.9" y2="40"/>
		<line class="st2" x1="658.8" y1="40" x2="1019.1" y2="40"/>
		<line class="st1" x1="1023.1" y1="40" x2="1023.5" y2="40"/>
	</g>
</g>
</svg>
