<svg id="Layer_1" data-name="Layer 1" xmlns="http://www.w3.org/2000/svg" viewBox="0 0 447.21 37.09"><defs><style>.cls-1{fill:#002;}.cls-2,.cls-3{fill:none;stroke:#d7927e;stroke-linecap:round;stroke-linejoin:round;stroke-width:2.18px;}.cls-3{stroke-dasharray:0.32 3.46;}</style></defs><title>divider</title><path class="cls-1" d="M200.29,36.66c-17,0-20.88-11-21.67-17.57a6.63,6.63,0,0,1-.08-1c-.22-2.27-.61-6.5-2.45-6.67l-.3,0,0-.31c-.53-2.7-1.09-5.1-1.66-7.37L174,3.18h.57A121.47,121.47,0,0,1,197.89.48c10.15,0,17,2.05,20.31,6.06l.13.17V6.8a26.29,26.29,0,0,1,1.61,11.94c-.56,6.37-3.74,17.18-18.56,17.92Zm-3-31.52A78.33,78.33,0,0,0,189,5.4a7.94,7.94,0,0,0-7.15,8.33c.3,9,3.44,19.79,16.39,19.83.35,0,.74,0,1.09,0s1,0,1.52,0C209.7,33.13,215,28,215.72,19.18a17.36,17.36,0,0,0-1.88-9.68c-1.26-2.09-6.14-4.31-16-4.31Z"/><path class="cls-1" d="M197.8.87c8.15,0,16.22,1.35,20,5.93a24.91,24.91,0,0,1,1.62,11.9c-.57,6.49-3.93,16.78-18.18,17.52h-1c-13.55,0-20.05-7.32-21.22-17.17-.27-2.09-.4-7.8-3-8.07-.48-2.44-1-4.92-1.66-7.41h0A122.79,122.79,0,0,1,197.8.87M199.33,34c.52,0,1,0,1.57,0,9-.43,14.51-5.71,15.25-14.77a17.92,17.92,0,0,0-1.92-9.94c-1.22-2-5.84-4.53-16.38-4.53h-.57A81.92,81.92,0,0,0,189,5a8.33,8.33,0,0,0-7.54,8.76c.26,7.85,2.71,20.22,16.83,20.22a8.25,8.25,0,0,0,1.09,0M197.8,0a119,119,0,0,0-23.45,2.7h-1l.26,1.09c.56,2.27,1.13,4.71,1.65,7.37l.13.61.66.09c1.48.17,1.87,4.44,2.05,6.27,0,.39.08.74.08,1A20.13,20.13,0,0,0,184.42,32c3.84,3.4,9.15,5.1,15.82,5.1h1c6.53-.35,11.55-2.66,14.86-6.93a22.15,22.15,0,0,0,4.14-11.37,26,26,0,0,0-1.57-12l0-.13-.26-.31C215.06,2.09,208.13,0,197.8,0Zm1.53,33.13h-1.05c-5.88,0-10.24-2.27-12.86-6.76-1.87-3.18-2.92-7.41-3.09-12.64a7.44,7.44,0,0,1,6.75-7.85c2.36-.21,5-.26,8.24-.26h.57A35.83,35.83,0,0,1,209.31,7.1c3,1,3.92,2.18,4.23,2.66a17.06,17.06,0,0,1,1.78,9.42c-.69,8.59-5.84,13.55-14.42,14Z"/><path class="cls-1" d="M246.93,36.66h-1c-14.82-.79-18-11.55-18.57-17.92a25.56,25.56,0,0,1,1.61-12V6.67l.13-.18c3.27-4,10.07-6,20.27-6a117.46,117.46,0,0,1,23.36,2.7h.57l-.13.56c-.57,2.27-1.13,4.71-1.66,7.37l0,.31-.31,0c-1.83.17-2.26,4.4-2.44,6.67,0,.39-.08.74-.08,1-.88,6.54-4.8,17.57-21.75,17.57Zm2.44-31.52c-9.9,0-14.74,2.23-16,4.32a18.1,18.1,0,0,0-1.88,9.68c.7,8.84,6,13.94,14.86,14.38.53,0,1.05,0,1.53,0h1.09c13,0,16.08-10.81,16.43-19.83a7.9,7.9,0,0,0-7.15-8.33c-2.39-.21-5-.26-8.32-.26Z"/><path class="cls-1" d="M249.41.87a121.25,121.25,0,0,1,23.36,2.7h0c-.61,2.49-1.17,5-1.65,7.41-2.53.27-2.71,6-3,8.07-1.22,9.85-7.67,17.17-21.22,17.17h-1c-14.26-.74-17.57-11.07-18.18-17.52A25.17,25.17,0,0,1,229.4,6.8c3.8-4.58,11.82-5.93,20-5.93M247.84,34h1.09c14.12,0,16.56-12.42,16.83-20.23A8.34,8.34,0,0,0,258.21,5a82.13,82.13,0,0,0-8.36-.26h-.53c-10.55,0-15.17,2.53-16.39,4.53A18,18,0,0,0,231,19.22c.74,9,6.27,14.34,15.25,14.78h1.57m1.57-34c-10.29,0-17.26,2.09-20.66,6.23l-.26.31,0,.13A26.41,26.41,0,0,0,227,18.74a21.71,21.71,0,0,0,4.14,11.38c3.32,4.27,8.28,6.62,14.87,6.93h1c6.67,0,12-1.7,15.82-5.1a20.06,20.06,0,0,0,6.28-12.86,6.48,6.48,0,0,0,.09-1c.17-1.83.56-6.15,2-6.28l.66-.08.13-.62c.52-2.65,1.09-5.09,1.65-7.36l.27-1.09h-1.05A123.22,123.22,0,0,0,249.41,0Zm-1.57,33.13c-.48,0-1,0-1.53-.05-8.63-.43-13.73-5.36-14.42-13.94a17.15,17.15,0,0,1,1.78-9.42c.27-.48,1.27-1.66,4.23-2.66a37.23,37.23,0,0,1,11.42-1.48h.53a79.32,79.32,0,0,1,8.28.26,7.46,7.46,0,0,1,6.75,7.85c-.17,5.23-1.22,9.46-3.09,12.64-2.66,4.49-7,6.75-12.86,6.75h0a8,8,0,0,1-1.09.05Z"/><path class="cls-1" d="M229.53,14.82a11.74,11.74,0,0,0-6.14-1.61,10.47,10.47,0,0,0-5.71,1.57c-.48-1.35-1-2.66-1.44-4H231C230.49,12.12,230,13.47,229.53,14.82Z"/><path class="cls-1" d="M230.36,11.2c-.35,1-.7,2-1.09,3a12.88,12.88,0,0,0-5.93-1.4,11.46,11.46,0,0,0-5.44,1.35c-.35-1-.7-2-1.05-2.92h13.51m1.22-.87h-16c.61,1.7,1.27,3.4,1.88,5.14a9.35,9.35,0,0,1,5.88-1.83h0a10.81,10.81,0,0,1,6.36,1.83c.7-1.7,1.31-3.4,1.92-5.14Z"/><line class="cls-2" x1="1.09" y1="17.44" x2="1.26" y2="17.44"/><line class="cls-3" x1="4.71" y1="17.44" x2="161.75" y2="17.44"/><line class="cls-2" x1="163.5" y1="17.44" x2="163.67" y2="17.44"/><line class="cls-2" x1="283.54" y1="17.44" x2="283.71" y2="17.44"/><line class="cls-3" x1="287.16" y1="17.44" x2="444.2" y2="17.44"/><line class="cls-2" x1="445.95" y1="17.44" x2="446.12" y2="17.44"/></svg>