<?xml version="1.0" encoding="utf-8"?>
<!-- Generator: Adobe Illustrator 20.1.0, SVG Export Plug-In . SVG Version: 6.00 Build 0)  -->
<svg version="1.1" id="Layer_1" xmlns="http://www.w3.org/2000/svg" xmlns:xlink="http://www.w3.org/1999/xlink" x="0px" y="0px"
	 viewBox="0 0 549.5 549.5" style="enable-background:new 0 0 549.5 549.5;" xml:space="preserve">
<style type="text/css">
	.st0{clip-path:url(#SVGID_2_);}
	.st1{fill:url(#SVGID_3_);}
	.st2{fill:#A8704A;}
	.st3{fill:#8F5C38;}
	.st4{fill:#E7106E;}
	.st5{fill:none;stroke:#E7106E;stroke-width:6;stroke-miterlimit:10;}
	.st6{fill:#251333;}
	.st7{fill:#070707;}
	.st8{fill:#FFFFFF;stroke:#E7106E;stroke-width:3;stroke-miterlimit:10;}
	.st9{fill:url(#SVGID_4_);}
	.st10{fill:#666666;}
</style>
<g>
	<defs>
		<circle id="SVGID_1_" cx="274.7" cy="274.7" r="273.2"/>
	</defs>
	<use xlink:href="#SVGID_1_"  style="overflow:visible;fill:#D7927E;"/>
	<clipPath id="SVGID_2_">
		<use xlink:href="#SVGID_1_"  style="overflow:visible;"/>
	</clipPath>
	<g class="st0">
		<linearGradient id="SVGID_3_" gradientUnits="userSpaceOnUse" x1="188.513" y1="214.6674" x2="387.1187" y2="214.6674">
			<stop  offset="1" style="stop-color:#110000"/>
			<stop  offset="1" style="stop-color:#91469B"/>
		</linearGradient>
		<path class="st1" d="M387.1,228c-1.5-25.5-7.4-48-20.5-69.1c-19.3-31.1-54.1-46.5-88.3-46.5c-34.1,0-62.5,7-85.2,43.2
			C169.6,193.4,241,316.9,283,316.9C320.4,316.9,388.6,253.5,387.1,228z"/>
		<path class="st2" d="M480.9,467c-9.6-5.7-20.6-10-32.2-12.7l-108.8-25.6l0,0c-7.8-1.8-12.1-7.2-13.5-13.3
			c-3.9-17.1-3.5-62.3-3.4-69.7c0-0.6-0.6-1-1.4-1h-96c-0.8,0-1.4,0.4-1.4,1c0.1,7.3,0.5,51.6-3.4,69.7c-1.3,6.1-5.7,11.5-13.5,13.3
			l0,0L98.2,454.4c-10,2.4-19.7,5.7-28.2,10.4c-44.3,24.6-45.5,64.9-47.4,72.3c-0.2,0.6,0.5,1.2,1.4,1.2h249.6h249.6
			c0.9,0,1.5-0.6,1.4-1.2C522.7,529.9,522.1,491.8,480.9,467z"/>
		<path class="st3" d="M323.2,383.7c-0.5-15.4-0.3-30.1-0.3-34c0-0.6-0.6-1-1.4-1h-96c-0.8,0-1.4,0.4-1.4,1c0,3.9,0.2,18.5-0.3,34
			C256,392,291.1,392,323.2,383.7z"/>
		<path class="st2" d="M190.1,270.7c4.5,10.8,2,27.6-5.8,30.9c-7.7,3.3-17.7-8.3-22.2-19.1c-4.5-10.8-2-22.1,5.8-25.4
			C175.7,253.9,185.6,260,190.1,270.7z"/>
		<path class="st2" d="M359.8,270.7c-4.5,10.8-2,27.6,5.8,30.9c7.7,3.3,17.7-8.3,22.2-19.1c4.5-10.8,2-22.1-5.8-25.4
			C374.3,253.9,364.3,260,359.8,270.7z"/>
		<g>
			<circle class="st4" cx="173.5" cy="296.8" r="9.3"/>
			<circle class="st4" cx="377.8" cy="296.8" r="9.3"/>
		</g>
		<path class="st2" d="M275.6,126.3c-105-3.9-106.5,90.2-104.9,121.2c1.1,22.5,10.5,55.1,15.6,71.3c2.9,9.3,8.2,17.9,15.7,24.7
			c27.4,24.6,73.6,32.9,73.6,32.9s46.2-8.4,73.6-32.9c7.5-6.8,12.8-15.4,15.7-24.7c5.1-16.2,14.5-48.9,15.6-71.3
			C382.1,216.6,380.6,122.4,275.6,126.3z"/>
		<path class="st5" d="M299.9,319.9c-4-7.9-12.9-3.5-23.2-3.5c-10.3,0-19.3-4.2-23.3,3.7L299.9,319.9z"/>
		<path class="st5" d="M253.2,325.9c4,7.9,12.9,13.4,23.2,13.4c10.3,0,19.2-5.5,23.2-13.4H253.2z"/>
		<polygon class="st6" points="327.1,252.7 342.5,248.4 336.6,256.5 		"/>
		<polygon class="st6" points="221.9,252.7 206.4,248.4 212.4,256.5 		"/>
		<ellipse class="st7" cx="224.5" cy="255.4" rx="12.8" ry="15.1"/>
		<ellipse class="st7" cx="323.6" cy="255.4" rx="12.8" ry="15.1"/>
		<path class="st8" d="M253.3,321.3c4.3,9.3,11.5,15.1,22.7,15.1s19.2-5.3,23.5-14.6L253.3,321.3z"/>
		
			<linearGradient id="SVGID_4_" gradientUnits="userSpaceOnUse" x1="-15.5834" y1="197.79" x2="22.658" y2="197.79" gradientTransform="matrix(-1 0 0 1 374.5562 0)">
			<stop  offset="1" style="stop-color:#110000"/>
			<stop  offset="1" style="stop-color:#91469B"/>
		</linearGradient>
		<path class="st9" d="M362.3,193.6c5.3,16.4,10.8,33,12.9,50.8c2,17.8,16.4-0.8,14.9-31.4c-1.2-24-9-56.7-26.1-66.4
			C340.4,133.2,357.9,180,362.3,193.6z"/>
		<g>
			<path class="st4" d="M223.7,406.7c-0.4,3.2-0.8,6.2-1.3,8.6c-1.3,6.1-5.7,11.5-13.5,13.3L99.7,454.3c-10,2.4-19.7,5.7-28.2,10.4
				c-44.3,24.6-45.5,64.9-47.4,72.3c-0.2,0.6,0.5,1.2,1.4,1.2h249.6h249.6c0.9,0,1.5-0.6,1.4-1.2c-1.8-7.3-2.4-45.4-43.6-70.2
				c-9.6-5.7-20.6-10-32.2-12.7l-108.8-25.6c-7.8-1.8-12.1-7.2-13.5-13.3c-0.5-2.4-1-5.3-1.4-8.6c-16.8,1-34,1.6-51.4,1.6
				C257.6,408.3,240.5,407.8,223.7,406.7z"/>
		</g>
		<path d="M326.3,402.6H223.8l-35.3,35.1c13.9,20.4,72.9,12.8,72.9,12.8l12.1-36l1.5-4l1.5,4l12.1,36c0,0,59,7.6,72.9-12.8
			L326.3,402.6z"/>
		<ellipse class="st4" cx="273.6" cy="562.9" rx="300.5" ry="71"/>
		<g>
			<g>
				<g>
					<path class="st10" d="M223.5,297.8c-39,0-47.9-25.3-49.7-40.3c-0.1-0.6-0.2-1.4-0.2-2.3c-0.5-5.2-1.4-14.9-5.6-15.3l-0.7-0.1
						l-0.1-0.7c-1.2-6.2-2.5-11.7-3.8-16.9l-0.3-1.2l1.2,0l0.1,0c6.7-1.4,30.2-6.2,53.6-6.2c23.3,0,39,4.7,46.6,13.9l0.3,0.4l0,0.2
						c1.3,3.2,4.9,13.4,3.7,27.4c-1.3,14.6-8.6,39.4-42.6,41.1C225,297.8,224.2,297.8,223.5,297.8
						C223.5,297.8,223.5,297.8,223.5,297.8z M216.6,225.5c-7.4,0-13.5,0-19,0.6c-9.7,1-16.8,9.2-16.4,19.1
						c0.7,20.7,7.9,45.4,37.6,45.5c0.8,0,1.7,0.1,2.5,0.1c1.1,0,2.3,0,3.5-0.1c20.3-1,32.4-12.7,34.1-33c0.9-10.5-2.4-19.1-4.3-22.2
						c-2.9-4.8-14.1-9.9-36.7-9.9L216.6,225.5z"/>
					<path class="st10" d="M217.8,215.7c18.7,0,37.2,3.1,45.8,13.6c0,0.1,5.2,11,3.7,27.3c-1.3,14.9-9,38.5-41.7,40.2
						c-0.7,0-1.5,0-2.2,0c-31.1,0-46-16.8-48.7-39.4c-0.6-4.8-0.9-17.9-6.8-18.5c-1.1-5.6-2.4-11.3-3.8-17c0,0,0,0,0,0
						C164.3,221.9,191.3,215.7,217.8,215.7 M221.4,291.7c1.2,0,2.4,0,3.6-0.1c20.6-1,33.3-13.1,35-33.9c0.9-11.3-2.7-20-4.4-22.8
						c-2.8-4.6-13.4-10.4-37.6-10.4c-0.4,0-0.9,0-1.3,0c-7.2,0-13.5,0-19.1,0.6c-10.4,1-17.7,9.8-17.3,20.1
						c0.6,18,6.2,46.4,38.6,46.4C219.7,291.7,220.5,291.7,221.4,291.7 M217.8,213.7c-23.5,0-47.1,4.7-53.8,6.2l0,0h-2.4l0.6,2.5
						c1.3,5.2,2.6,10.8,3.8,16.9l0.3,1.4l1.5,0.2c3.4,0.4,4.3,10.2,4.7,14.4c0.1,0.9,0.2,1.7,0.2,2.3c1.5,12.3,6.5,22.4,14.4,29.5
						c8.8,7.8,21,11.7,36.3,11.7c0.7,0,1.5,0,2.3,0l0,0l0,0c15-0.8,26.5-6.1,34.1-15.9c6.7-8.6,8.8-19,9.5-26.1
						c1.3-14-2.2-24.2-3.6-27.6l0.1-0.3l-0.6-0.7C257.4,218.5,241.5,213.7,217.8,213.7L217.8,213.7z M221.4,289.7
						c-0.8,0-1.6,0-2.4,0l0,0l0,0c-13.5,0-23.5-5.2-29.5-15.5c-4.3-7.3-6.7-17-7.1-29c-0.4-9.4,6.3-17.1,15.5-18
						c5.4-0.5,11.5-0.6,18.9-0.6l1.3,0c10.8,0,19.6,1.1,26.2,3.4c6.8,2.3,9,5,9.7,6.1c1.8,3,5,11.4,4.1,21.6
						c-1.6,19.7-13.4,31.1-33.1,32C223.6,289.6,222.5,289.7,221.4,289.7L221.4,289.7z"/>
				</g>
				<g>
					<path class="st10" d="M330.5,297.8c-0.7,0-1.5,0-2.2,0c-34-1.8-41.3-26.5-42.6-41.1c-1.3-14.2,2.4-24.4,3.7-27.5l0-0.2l0.3-0.4
						c7.6-9.3,23.3-13.9,46.6-13.9c23.4,0,46.9,4.7,53.6,6.2l0.1,0l1.2,0l-0.3,1.3c-1.3,5.2-2.6,10.8-3.8,16.9l-0.1,0.7l-0.7,0.1
						c-4.2,0.4-5.1,10.1-5.6,15.3c-0.1,0.9-0.2,1.7-0.2,2.3C378.4,272.5,369.5,297.8,330.5,297.8
						C330.5,297.8,330.5,297.8,330.5,297.8z M336.1,225.5c-22.7,0-33.8,5.1-36.8,9.9c-1.8,3.1-5.1,11.7-4.3,22.2
						c1.6,20.3,13.7,32,34.1,33c1.2,0.1,2.4,0.1,3.5,0.1c0.8,0,1.6,0,2.4,0c29.8-0.1,36.9-24.8,37.7-45.5
						c0.4-9.9-6.6-18.1-16.4-19.1c-5.5-0.5-11.6-0.6-19.1-0.6H336.1z"/>
					<path class="st10" d="M336.2,215.7c26.5,0,53.5,6.2,53.6,6.2h0c-1.4,5.7-2.7,11.4-3.8,17c-5.8,0.6-6.2,13.7-6.8,18.5
						c-2.8,22.6-17.6,39.4-48.7,39.4c-0.7,0-1.5,0-2.2,0c-32.7-1.7-40.3-25.4-41.7-40.2c-1.5-16.2,3.7-27.2,3.7-27.3
						C299,218.8,317.5,215.7,336.2,215.7 M332.7,291.7c0.8,0,1.7,0,2.5,0c32.4-0.1,38-28.5,38.6-46.4c0.4-10.3-6.9-19.1-17.3-20.1
						c-5.6-0.6-12-0.6-19.2-0.6c-0.4,0-0.8,0-1.2,0c-24.2,0-34.8,5.8-37.6,10.4c-1.7,2.8-5.3,11.5-4.4,22.8
						c1.7,20.7,14.4,32.9,35,33.9C330.3,291.6,331.5,291.7,332.7,291.7 M336.2,213.7c-23.6,0-39.6,4.8-47.4,14.3l-0.6,0.7l0.1,0.3
						c-1.4,3.4-4.9,13.7-3.6,27.7c0.6,7.1,2.8,17.5,9.5,26.1c7.6,9.8,19,15.2,34.1,15.9l0,0l0,0c0.8,0,1.5,0,2.3,0
						c15.3,0,27.5-3.9,36.3-11.7c7.9-7,12.9-17.2,14.4-29.5c0.1-0.6,0.2-1.4,0.2-2.3c0.4-4.2,1.3-14.1,4.7-14.4l1.5-0.2l0.3-1.4
						c1.2-6.1,2.5-11.7,3.8-16.9l0.6-2.5l-2.4,0l0,0C383.3,218.4,359.7,213.7,336.2,213.7L336.2,213.7z M332.7,289.7
						c-1.1,0-2.3,0-3.5-0.1c-19.8-1-31.5-12.3-33.1-32c-0.9-10.2,2.3-18.6,4.1-21.6c0.6-1.1,2.9-3.8,9.7-6.1
						c6.6-2.2,15.5-3.4,26.2-3.4l1.2,0c7.4,0,13.6,0,19,0.6c9.2,0.9,15.9,8.7,15.5,18c-0.4,12-2.8,21.7-7.1,29
						c-6.1,10.3-16,15.5-29.5,15.5l0,0l0,0C334.3,289.7,333.5,289.7,332.7,289.7L332.7,289.7z"/>
				</g>
			</g>
			<g>
				<path class="st10" d="M291.1,249.2c0,0-5.3-4.2-14.6-4.2c-8.7,0-13.5,4.2-13.5,4.2c-1.4-3.9-2.8-7.9-4.3-11.8
					c12.2,0,24.5,0,36.7,0C293.9,241.3,292.5,245.3,291.1,249.2z"/>
				<path class="st10" d="M295.4,237.4c-6.1,0-12.2,0-18.4,0s-12.2,0-18.4,0c1.4,3.9,2.9,7.8,4.3,11.8c0,0,4.8-4.2,13.5-4.2
					c0,0,0,0,0,0c0,0,0,0,0,0c9.3,0,14.6,4.2,14.6,4.2C292.5,245.3,293.9,241.3,295.4,237.4L295.4,237.4z"/>
			</g>
		</g>
	</g>
	<use xlink:href="#SVGID_1_"  style="overflow:visible;fill:none;stroke:#FFFFFF;stroke-width:3;stroke-miterlimit:10;"/>
</g>
<g>
	<g>
		<path d="M152.5,183c3.1-5,9.9-7.1,17.6-6.2c-0.8-2-1.2-4.2-1.2-6.5c0-10.8,9.2-19.5,20.6-19.5c0.1,0,0.2,0,0.2,0
			c-0.8-2.4-1.2-4.9-1.2-7.6c0-13.8,11.8-25.1,26.5-25.1c2.5,0,4.9,0.4,7.2,1c0-0.3-0.1-0.6-0.1-1c0-16.4,14.8-29.7,33-29.7
			c10.5,0,19.9,4.5,26,11.4c6.7-4.2,15.2-6.7,24.4-6.7c21.9,0,39.6,14,39.6,31.3c0,0.8-0.1,1.5-0.1,2.3c5.1,2.4,9.1,6.4,10.8,11.5
			c3.9,11.5-4.8,24.5-19.5,29c-7,2.1-14,2-19.9,0c-4.9,16.7-23.9,29.1-46.5,29.1c-9.2,0-17.9-2.1-25.2-5.6
			c-4.4,9-14.1,15.3-25.3,15.3c-2.7,0-5.4-0.4-7.9-1.1c-3.9,4.7-10,7.8-16.8,7.8c-1,0-1.9-0.1-2.8-0.2c-7.1,2.3-16.2,2.5-23.8-2.6
			c-0.9-0.4-1.8-0.8-2.7-1.3C153.7,202.1,147.8,190.7,152.5,183z"/>
	</g>
</g>
</svg>
